<svg xmlns="http://www.w3.org/2000/svg" viewBox="0 0 487.49 161.29"><defs><style>.cls-1{fill:none;}.cls-1,.cls-2,.cls-3,.cls-4,.cls-5{fill-rule:evenodd;}.cls-2{fill:#00b5b7;}.cls-3{fill:#3a62ae;}.cls-4{fill:#fff;}.cls-5{fill:#f9f9f9;}.cls-6{fill:#00b7b5;}</style></defs><title>aura</title><g id="Layer_2" data-name="Layer 2"><g id="Layer_1-2" data-name="Layer 1"><path class="cls-1" d="M210.41,83.88c9.72,0,17.27-2.6,23-8.21C247.32,62,249.53,41.46,234.17,27c-4.17-3.93-5-7.07-1.24-11.62,2.57-3.11,4.48-6.79,6.58-10.27.81-1.35,2.53-2.87,1.18-4.42s-2.7.3-4,.77c-3.12,1.15-6.15,2.58-9.28,3.71-18.13,6.58-36.58,10.37-56,7.52A139.71,139.71,0,0,1,131.57,1C130.46.46,129.16-.67,128,.54s.1,2.41.72,3.47c2.62,4.46,5.08,9.05,8,13.3,2.44,3.5,1.79,5.9-1.23,8.52a29,29,0,0,0-6.82,8c-6.86,12.7-5.94,25.06,2.17,36.65,7.75,11.08,19.45,16.16,32,12.78,10.11-2.72,14.81-.39,18.29,8.49,1.42,3.61,3.8,2.93,5.65,0a61,61,0,0,0,4.22-7.18c1.78-3.93,4.38-4.56,8.06-2.82A22.16,22.16,0,0,0,210.41,83.88Zm-26.63,56.58a30.67,30.67,0,0,1-15.31-2.62c-17.5-8.3-25.92-23.25-24.07-43.24.2-2.19.2-4.2-2.14-5.13-4.19-1.66-7.7-4.41-11.31-7-2.58-1.85-4.06-1.36-4.76,1.61-.84,3.6-2,7.2-2.22,10.85-2.6,43,36.67,76.09,77.13,63.71C230.82,149.58,251,117,242.23,84.38c-.88-3.28-2.41-3.9-5.07-1.77-2.89,2.33-5.87,4.67-9.44,5.74-3.95,1.17-4.44,3.54-3.89,7.16C227.41,119.19,206.56,142.53,183.78,140.46Z"/><path class="cls-2" d="M212.57,83.88a22.2,22.2,0,0,1-11.26-2.17c-3.67-1.74-6.28-1.11-8.06,2.82A59.68,59.68,0,0,1,189,91.71c-1.85,2.94-4.23,3.62-5.65,0-3.48-8.88-8.18-11.21-18.29-8.49-12.58,3.38-24.28-1.7-32-12.78-8.11-11.59-9-24-2.17-36.65a29.12,29.12,0,0,1,6.82-8c3-2.62,3.68-5,1.24-8.52-3-4.25-10-2.45-12.65-6.92-.62-1.05,2.76-8.64,3.89-9.85s2.44-.08,3.55.44a139.55,139.55,0,0,0,39.78,11.67c19.47,2.85,37.92-.94,56.06-7.52,3.13-1.13,6.15-2.56,9.28-3.71,1.29-.47,2.78-2.18,4-.77a37.28,37.28,0,0,1,2.93,3.88c3.9,5.61,1.19,4.23-4.59,11.24-3.74,4.55-9,7.26-4.87,11.19,15.36,14.5,13.15,35-.78,48.71C229.84,81.28,222.29,83.87,212.57,83.88ZM193.65,50.73c.06,11.43,8.9,20.67,19.66,20.54s20.37-10,20.33-20.88c0-11.34-9.09-20.13-20.64-20S193.6,38.72,193.65,50.73Zm-14.33,0c.05-12.3-7.55-20.42-19.09-20.38-11.72,0-20.77,8.68-20.84,19.89-.06,10.44,10.25,21.06,20.41,21C170.7,71.26,179.28,62.23,179.32,50.73Z"/><path class="cls-2" d="M186.64,140.33c22.77,2.07,43.63-21.27,40-45-.54-3.62-.05-6,3.9-7.16,3.57-1.07,6.54-3.41,9.43-5.73,2.66-2.14,4.2-1.52,5.08,1.76,8.76,32.61-11.42,65.2-41.13,74.28-40.46,12.38-79.74-20.74-77.14-63.71.22-3.65,1.39-7.25,2.23-10.85.69-3,2.17-3.46,4.76-1.61,3.6,2.57,7.12,5.32,11.31,7,2.34.93,2.33,2.94,2.13,5.13-1.84,20,6.58,34.94,24.07,43.25A30.82,30.82,0,0,0,186.64,140.33Z"/><path class="cls-1" d="M191.49,50.73c-.05-12,7.82-20.31,19.35-20.39s20.6,8.71,20.64,20.05c0,10.9-9.55,20.75-20.33,20.88S191.54,62.16,191.49,50.73Zm19.25,8.6c4.28.14,7.75-2.33,8.58-5.78,1.34-5.59-8-5-7.72-11,.05-1.15-2.54-1.09-3.91-.38-4.13,2.13-5.66,5.64-4.87,10.12S206.22,59.13,210.74,59.33Z"/><path class="cls-1" d="M177.16,50.73c0,11.5-8.62,20.53-19.52,20.55-10.16,0-20.47-10.6-20.41-21,.06-11.21,9.12-19.86,20.84-19.89C169.6,30.31,177.21,38.43,177.16,50.73Zm-19.95,8.65c4.87-.16,7.55-2.34,8.94-6.21,1.56-4.35-2.52-3.48-4.35-4.66a7,7,0,0,1-2.37-3c-2.26-4.45-4.86-4.86-8.22-1.2-2.38,2.59-3.71,5.66-1.93,9.1S153.63,59.42,157.21,59.38Z"/><path class="cls-3" d="M167.09,50.81a9.9,9.9,0,1,1-9.89-9.9A9.9,9.9,0,0,1,167.09,50.81Z"/><path class="cls-3" d="M223.93,50.81a9.91,9.91,0,1,1-9.91-9.9A9.91,9.91,0,0,1,223.93,50.81Z"/><path class="cls-4" d="M162.56,47a3.93,3.93,0,1,1-3.92-3.93A3.93,3.93,0,0,1,162.56,47Z"/><path class="cls-4" d="M220.74,47.09a3.93,3.93,0,1,1-3.93-3.93A3.93,3.93,0,0,1,220.74,47.09Z"/><path class="cls-5" d="M165.78,50.91a1.56,1.56,0,1,1-1.56-1.55A1.55,1.55,0,0,1,165.78,50.91Z"/><path class="cls-5" d="M222.32,52.45a1.56,1.56,0,1,1-1.56-1.55A1.55,1.55,0,0,1,222.32,52.45Z"/><path class="cls-6" d="M97,140.8a10.51,10.51,0,0,1-3.37,8,10.92,10.92,0,0,1-8,3.37h-.28a10.92,10.92,0,0,1-8-3.37,10.51,10.51,0,0,1-3.37-8V99H23V140.8a10.52,10.52,0,0,1-3.38,8,10.92,10.92,0,0,1-8,3.37h-.28a10.94,10.94,0,0,1-8-3.37,10.51,10.51,0,0,1-3.37-8V54.23a46.78,46.78,0,0,1,14.24-34.3A46.85,46.85,0,0,1,48.44,5.79,46.92,46.92,0,0,1,82.73,19.93,46.74,46.74,0,0,1,97,54.23ZM74,76.15V54.23A25.42,25.42,0,0,0,48.44,28.65,25.42,25.42,0,0,0,23,54.23V76.15Z"/><path class="cls-6" d="M351.73,123.47a23.09,23.09,0,0,0-7-17,22.39,22.39,0,0,0-15.18-6.94H301.88V140.8a10.85,10.85,0,0,1-3.28,8,11,11,0,0,1-8.05,3.37h-.19A11.51,11.51,0,0,1,279,140.8V42.33A35.12,35.12,0,0,1,289.7,16.56,35.28,35.28,0,0,1,315.56,5.79h12.18a44.94,44.94,0,0,1,33.08,13.77,45.22,45.22,0,0,1,13.77,33.17A45.09,45.09,0,0,1,360.82,85.8l-2.16,2.25,2.25,2.34a45.07,45.07,0,0,1,13.68,33.08V140.8a10.51,10.51,0,0,1-3.37,8,10.94,10.94,0,0,1-8,3.37h-.19a10.92,10.92,0,0,1-8-3.37,10.51,10.51,0,0,1-3.37-8Zm-24-46.85a23.83,23.83,0,0,0,24-23.89,23.85,23.85,0,0,0-24-24H317q-7,0-11,3.85a14,14,0,0,0-3.93,7.3,20.9,20.9,0,0,0-.19,3.28V76.62Z"/><path class="cls-6" d="M487.49,140.8a10.54,10.54,0,0,1-3.37,8,10.94,10.94,0,0,1-8,3.37h-.28a10.9,10.9,0,0,1-8-3.37,10.52,10.52,0,0,1-3.38-8V99H413.47V140.8a10.51,10.51,0,0,1-3.37,8,10.94,10.94,0,0,1-8,3.37h-.28a10.92,10.92,0,0,1-8-3.37,10.51,10.51,0,0,1-3.37-8V54.23a46.74,46.74,0,0,1,14.24-34.3,48.54,48.54,0,0,1,68.49,0,46.78,46.78,0,0,1,14.24,34.3Zm-23-64.65V54.23a25.53,25.53,0,1,0-51.06,0V76.15Z"/></g></g></svg>